<svg xmlns="http://www.w3.org/2000/svg" width="1200" height="700" viewBox="0 0 1200 700" role="img" aria-label="Taqam reports preview">
  <defs>
    <linearGradient id="reports-bg" x1="0" y1="0" x2="1" y2="1">
      <stop offset="0%" stop-color="#EEF2FF"/>
      <stop offset="100%" stop-color="#E0EAFF"/>
    </linearGradient>
    <linearGradient id="reports-sidebar" x1="0" y1="0" x2="1" y2="0">
      <stop offset="0%" stop-color="#312E81"/>
      <stop offset="100%" stop-color="#4338CA"/>
    </linearGradient>
    <linearGradient id="reports-purple" x1="0" y1="0" x2="1" y2="1">
      <stop offset="0%" stop-color="#4F46E5"/>
      <stop offset="100%" stop-color="#7C3AED"/>
    </linearGradient>
    <linearGradient id="reports-blue" x1="0" y1="0" x2="1" y2="1">
      <stop offset="0%" stop-color="#3B82F6"/>
      <stop offset="100%" stop-color="#2563EB"/>
    </linearGradient>
    <filter id="reports-shadow" x="-10%" y="-10%" width="120%" height="130%">
      <feDropShadow dx="0" dy="18" stdDeviation="28" flood-color="#312E81" flood-opacity="0.14"/>
    </filter>
    <filter id="reports-card-shadow" x="-10%" y="-10%" width="120%" height="140%">
      <feDropShadow dx="0" dy="10" stdDeviation="16" flood-color="#312E81" flood-opacity="0.12"/>
    </filter>
  </defs>

  <rect width="1200" height="700" fill="url(#reports-bg)"/>
  <circle cx="1012" cy="88" r="170" fill="#4F46E5" opacity="0.08"/>
  <circle cx="176" cy="604" r="190" fill="#60A5FA" opacity="0.08"/>

  <g filter="url(#reports-shadow)">
    <rect x="40" y="40" width="1120" height="620" rx="24" fill="#F8FAFC"/>
  </g>

  <rect x="40" y="40" width="220" height="620" rx="24" fill="url(#reports-sidebar)"/>
  <rect x="58" y="62" width="42" height="42" rx="12" fill="#6366F1"/>
  <rect x="66" y="70" width="26" height="8" rx="4" fill="#fff"/>
  <rect x="72" y="82" width="14" height="16" rx="3" fill="#fff" opacity="0.9"/>
  <rect x="112" y="70" width="78" height="9" rx="4.5" fill="#fff" opacity="0.92"/>
  <rect x="112" y="84" width="54" height="8" rx="4" fill="#fff" opacity="0.45"/>
  <rect x="58" y="126" width="182" height="38" rx="11" fill="#fff" opacity="0.14"/>
  <rect x="82" y="139" width="94" height="10" rx="5" fill="#fff" opacity="0.90"/>
  <rect x="58" y="174" width="182" height="38" rx="11" fill="#fff" opacity="0.18"/>
  <rect x="82" y="187" width="114" height="10" rx="5" fill="#fff" opacity="0.95"/>
  <rect x="82" y="224" width="88" height="9" rx="4.5" fill="#fff" opacity="0.50"/>
  <rect x="82" y="262" width="106" height="9" rx="4.5" fill="#fff" opacity="0.50"/>
  <rect x="82" y="300" width="92" height="9" rx="4.5" fill="#fff" opacity="0.50"/>
  <rect x="82" y="338" width="82" height="9" rx="4.5" fill="#fff" opacity="0.50"/>
  <circle cx="78" cy="632" r="18" fill="#fff" opacity="0.16"/>
  <rect x="104" y="624" width="76" height="9" rx="4.5" fill="#fff" opacity="0.7"/>
  <rect x="104" y="638" width="54" height="8" rx="4" fill="#fff" opacity="0.4"/>

  <rect x="260" y="40" width="900" height="60" fill="#fff"/>
  <rect x="284" y="60" width="166" height="18" rx="9" fill="#E2E8F0"/>
  <rect x="292" y="65" width="84" height="8" rx="4" fill="#94A3B8"/>
  <circle cx="1088" cy="69" r="18" fill="#EEF2FF"/>
  <rect x="1080" y="63" width="16" height="12" rx="4" fill="#6366F1" opacity="0.8"/>

  <rect x="284" y="122" width="180" height="12" rx="6" fill="#94A3B8" opacity="0.45"/>
  <rect x="284" y="142" width="294" height="22" rx="11" fill="#0F172A" opacity="0.86"/>

  <rect x="284" y="184" width="360" height="42" rx="13" fill="#fff" stroke="#E2E8F0" stroke-width="1"/>
  <rect x="304" y="201" width="14" height="10" rx="4" fill="#94A3B8" opacity="0.7"/>
  <rect x="326" y="201" width="128" height="8" rx="4" fill="#CBD5E1"/>
  <rect x="660" y="184" width="136" height="42" rx="13" fill="#fff" stroke="#E2E8F0" stroke-width="1"/>
  <rect x="680" y="201" width="90" height="8" rx="4" fill="#94A3B8" opacity="0.65"/>
  <rect x="812" y="184" width="132" height="42" rx="13" fill="#fff" stroke="#E2E8F0" stroke-width="1"/>
  <rect x="832" y="201" width="86" height="8" rx="4" fill="#94A3B8" opacity="0.65"/>
  <rect x="960" y="182" width="180" height="46" rx="14" fill="url(#reports-purple)"/>
  <rect x="980" y="200" width="18" height="10" rx="4" fill="#fff" opacity="0.92"/>
  <rect x="1008" y="201" width="92" height="8" rx="4" fill="#fff" opacity="0.92"/>

  <g filter="url(#reports-card-shadow)">
    <rect x="284" y="248" width="540" height="166" rx="20" fill="#fff"/>
    <rect x="842" y="248" width="298" height="166" rx="20" fill="#fff"/>
    <rect x="284" y="432" width="856" height="196" rx="20" fill="#fff"/>
  </g>

  <rect x="308" y="272" width="150" height="14" rx="7" fill="#0F172A" opacity="0.82"/>
  <rect x="308" y="294" width="190" height="8" rx="4" fill="#94A3B8" opacity="0.55"/>
  <rect x="308" y="328" width="24" height="54" rx="8" fill="#C7D2FE"/>
  <rect x="344" y="304" width="24" height="78" rx="8" fill="#A5B4FC"/>
  <rect x="380" y="344" width="24" height="38" rx="8" fill="#818CF8"/>
  <rect x="416" y="286" width="24" height="96" rx="8" fill="#6366F1"/>
  <rect x="452" y="318" width="24" height="64" rx="8" fill="#8B5CF6"/>
  <rect x="488" y="334" width="24" height="48" rx="8" fill="#C4B5FD"/>
  <rect x="548" y="320" width="102" height="12" rx="6" fill="#0F172A" opacity="0.72"/>
  <rect x="548" y="342" width="134" height="8" rx="4" fill="#94A3B8" opacity="0.52"/>
  <rect x="548" y="370" width="118" height="12" rx="6" fill="#0F172A" opacity="0.72"/>
  <rect x="548" y="392" width="96" height="8" rx="4" fill="#94A3B8" opacity="0.52"/>

  <rect x="866" y="272" width="130" height="14" rx="7" fill="#0F172A" opacity="0.82"/>
  <rect x="866" y="294" width="164" height="8" rx="4" fill="#94A3B8" opacity="0.55"/>
  <rect x="866" y="328" width="84" height="76" rx="18" fill="url(#reports-blue)"/>
  <rect x="964" y="328" width="84" height="76" rx="18" fill="url(#reports-purple)"/>
  <rect x="1062" y="328" width="54" height="76" rx="18" fill="#EEF2FF"/>
  <g fill="#fff">
    <rect x="884" y="346" width="40" height="8" rx="4" opacity="0.80"/>
    <rect x="884" y="362" width="26" height="20" rx="6" opacity="0.96"/>
    <rect x="982" y="346" width="42" height="8" rx="4" opacity="0.80"/>
    <rect x="982" y="362" width="28" height="20" rx="6" opacity="0.96"/>
  </g>
  <rect x="1078" y="346" width="20" height="8" rx="4" fill="#6366F1" opacity="0.70"/>
  <rect x="1074" y="362" width="28" height="20" rx="6" fill="#6366F1" opacity="0.16"/>

  <rect x="284" y="432" width="856" height="48" rx="20" fill="#F8FAFC"/>
  <rect x="304" y="452" width="84" height="9" rx="4.5" fill="#64748B"/>
  <rect x="450" y="452" width="96" height="9" rx="4.5" fill="#64748B"/>
  <rect x="612" y="452" width="88" height="9" rx="4.5" fill="#64748B"/>
  <rect x="770" y="452" width="72" height="9" rx="4.5" fill="#64748B"/>
  <rect x="932" y="452" width="76" height="9" rx="4.5" fill="#64748B"/>

  <g>
    <line x1="284" y1="528" x2="1140" y2="528" stroke="#F1F5F9" stroke-width="1"/>
    <line x1="284" y1="576" x2="1140" y2="576" stroke="#F1F5F9" stroke-width="1"/>
  </g>

  <g>
    <circle cx="322" cy="506" r="16" fill="#DBEAFE"/>
    <rect x="350" y="500" width="110" height="10" rx="5" fill="#0F172A" opacity="0.78"/>
    <rect x="350" y="516" width="82" height="8" rx="4" fill="#94A3B8" opacity="0.55"/>
    <rect x="476" y="504" width="92" height="9" rx="4.5" fill="#475569" opacity="0.68"/>
    <rect x="632" y="504" width="74" height="9" rx="4.5" fill="#475569" opacity="0.68"/>
    <rect x="782" y="496" width="82" height="24" rx="12" fill="#EDE9FE"/>
    <rect x="794" y="504" width="58" height="8" rx="4" fill="#7C3AED" opacity="0.80"/>
    <rect x="948" y="504" width="90" height="9" rx="4.5" fill="#94A3B8" opacity="0.68"/>

    <circle cx="322" cy="554" r="16" fill="#EDE9FE"/>
    <rect x="350" y="548" width="124" height="10" rx="5" fill="#0F172A" opacity="0.78"/>
    <rect x="350" y="564" width="88" height="8" rx="4" fill="#94A3B8" opacity="0.55"/>
    <rect x="476" y="552" width="100" height="9" rx="4.5" fill="#475569" opacity="0.68"/>
    <rect x="632" y="552" width="90" height="9" rx="4.5" fill="#475569" opacity="0.68"/>
    <rect x="782" y="544" width="82" height="24" rx="12" fill="#DBEAFE"/>
    <rect x="794" y="552" width="58" height="8" rx="4" fill="#2563EB" opacity="0.82"/>
    <rect x="948" y="552" width="84" height="9" rx="4.5" fill="#94A3B8" opacity="0.68"/>
  </g>
</svg>