<svg xmlns="http://www.w3.org/2000/svg" width="1200" height="700" viewBox="0 0 1200 700" role="img" aria-label="Taqam analytics preview">
  <defs>
    <linearGradient id="analytics-bg" x1="0" y1="0" x2="1" y2="1">
      <stop offset="0%" stop-color="#EEF2FF"/>
      <stop offset="100%" stop-color="#EDE9FE"/>
    </linearGradient>
    <linearGradient id="analytics-sidebar" x1="0" y1="0" x2="1" y2="0">
      <stop offset="0%" stop-color="#312E81"/>
      <stop offset="100%" stop-color="#4338CA"/>
    </linearGradient>
    <linearGradient id="analytics-card-a" x1="0" y1="0" x2="1" y2="1">
      <stop offset="0%" stop-color="#4F46E5"/>
      <stop offset="100%" stop-color="#6366F1"/>
    </linearGradient>
    <linearGradient id="analytics-card-b" x1="0" y1="0" x2="1" y2="1">
      <stop offset="0%" stop-color="#7C3AED"/>
      <stop offset="100%" stop-color="#9333EA"/>
    </linearGradient>
    <linearGradient id="analytics-card-c" x1="0" y1="0" x2="1" y2="1">
      <stop offset="0%" stop-color="#3B82F6"/>
      <stop offset="100%" stop-color="#2563EB"/>
    </linearGradient>
    <linearGradient id="analytics-card-d" x1="0" y1="0" x2="1" y2="1">
      <stop offset="0%" stop-color="#10B981"/>
      <stop offset="100%" stop-color="#059669"/>
    </linearGradient>
    <filter id="analytics-shadow" x="-10%" y="-10%" width="120%" height="130%">
      <feDropShadow dx="0" dy="18" stdDeviation="28" flood-color="#312E81" flood-opacity="0.14"/>
    </filter>
    <filter id="analytics-card-shadow" x="-10%" y="-10%" width="120%" height="140%">
      <feDropShadow dx="0" dy="8" stdDeviation="14" flood-color="#312E81" flood-opacity="0.12"/>
    </filter>
  </defs>

  <rect width="1200" height="700" fill="url(#analytics-bg)"/>
  <circle cx="1010" cy="88" r="180" fill="#6366F1" opacity="0.10"/>
  <circle cx="160" cy="610" r="170" fill="#A855F7" opacity="0.10"/>

  <g filter="url(#analytics-shadow)">
    <rect x="38" y="38" width="1124" height="624" rx="24" fill="#F8FAFC"/>
  </g>

  <rect x="38" y="38" width="222" height="624" rx="24" fill="url(#analytics-sidebar)"/>
  <rect x="58" y="62" width="42" height="42" rx="12" fill="#6366F1"/>
  <rect x="66" y="70" width="26" height="8" rx="4" fill="#fff"/>
  <rect x="72" y="82" width="14" height="16" rx="3" fill="#fff" opacity="0.9"/>
  <rect x="112" y="70" width="76" height="9" rx="4.5" fill="#fff" opacity="0.92"/>
  <rect x="112" y="84" width="54" height="8" rx="4" fill="#fff" opacity="0.45"/>
  <rect x="58" y="126" width="182" height="38" rx="11" fill="#fff" opacity="0.16"/>
  <rect x="82" y="139" width="102" height="10" rx="5" fill="#fff" opacity="0.95"/>
  <rect x="82" y="184" width="86" height="9" rx="4.5" fill="#fff" opacity="0.50"/>
  <rect x="82" y="222" width="100" height="9" rx="4.5" fill="#fff" opacity="0.50"/>
  <rect x="82" y="260" width="92" height="9" rx="4.5" fill="#fff" opacity="0.50"/>
  <rect x="82" y="298" width="82" height="9" rx="4.5" fill="#fff" opacity="0.50"/>
  <rect x="82" y="336" width="108" height="9" rx="4.5" fill="#fff" opacity="0.50"/>
  <circle cx="78" cy="632" r="18" fill="#fff" opacity="0.16"/>
  <rect x="104" y="624" width="76" height="9" rx="4.5" fill="#fff" opacity="0.7"/>
  <rect x="104" y="638" width="54" height="8" rx="4" fill="#fff" opacity="0.4"/>

  <rect x="260" y="38" width="902" height="62" fill="#fff"/>
  <rect x="284" y="60" width="148" height="18" rx="9" fill="#E2E8F0"/>
  <rect x="292" y="65" width="74" height="8" rx="4" fill="#94A3B8"/>
  <circle cx="1088" cy="69" r="18" fill="#EEF2FF"/>
  <rect x="1080" y="63" width="16" height="12" rx="4" fill="#6366F1" opacity="0.8"/>
  <circle cx="1042" cy="69" r="18" fill="#EEF2FF"/>
  <rect x="1034" y="63" width="16" height="12" rx="4" fill="#A855F7" opacity="0.75"/>

  <rect x="284" y="124" width="198" height="12" rx="6" fill="#94A3B8" opacity="0.45"/>
  <rect x="284" y="144" width="300" height="22" rx="11" fill="#0F172A" opacity="0.86"/>

  <g filter="url(#analytics-card-shadow)">
    <rect x="284" y="188" width="198" height="104" rx="18" fill="url(#analytics-card-a)"/>
    <rect x="500" y="188" width="198" height="104" rx="18" fill="url(#analytics-card-b)"/>
    <rect x="716" y="188" width="198" height="104" rx="18" fill="url(#analytics-card-c)"/>
    <rect x="932" y="188" width="198" height="104" rx="18" fill="url(#analytics-card-d)"/>
  </g>

  <g fill="#fff">
    <rect x="306" y="208" width="86" height="9" rx="4.5" opacity="0.76"/>
    <rect x="306" y="226" width="54" height="24" rx="7" opacity="0.96"/>
    <rect x="306" y="260" width="116" height="8" rx="4" opacity="0.56"/>
    <circle cx="454" cy="222" r="18" opacity="0.16"/>
    <rect x="446" y="216" width="16" height="12" rx="4" opacity="0.86"/>

    <rect x="522" y="208" width="92" height="9" rx="4.5" opacity="0.76"/>
    <rect x="522" y="226" width="44" height="24" rx="7" opacity="0.96"/>
    <rect x="522" y="260" width="108" height="8" rx="4" opacity="0.56"/>
    <circle cx="670" cy="222" r="18" opacity="0.16"/>
    <rect x="662" y="216" width="16" height="12" rx="4" opacity="0.86"/>

    <rect x="738" y="208" width="90" height="9" rx="4.5" opacity="0.76"/>
    <rect x="738" y="226" width="48" height="24" rx="7" opacity="0.96"/>
    <rect x="738" y="260" width="104" height="8" rx="4" opacity="0.56"/>
    <circle cx="886" cy="222" r="18" opacity="0.16"/>
    <rect x="878" y="216" width="16" height="12" rx="4" opacity="0.86"/>

    <rect x="954" y="208" width="84" height="9" rx="4.5" opacity="0.76"/>
    <rect x="954" y="226" width="52" height="24" rx="7" opacity="0.96"/>
    <rect x="954" y="260" width="98" height="8" rx="4" opacity="0.56"/>
    <circle cx="1102" cy="222" r="18" opacity="0.16"/>
    <rect x="1094" y="216" width="16" height="12" rx="4" opacity="0.86"/>
  </g>

  <g filter="url(#analytics-card-shadow)">
    <rect x="284" y="316" width="572" height="312" rx="20" fill="#fff"/>
    <rect x="878" y="316" width="252" height="148" rx="20" fill="#fff"/>
    <rect x="878" y="480" width="252" height="148" rx="20" fill="#fff"/>
  </g>

  <rect x="308" y="340" width="160" height="14" rx="7" fill="#0F172A" opacity="0.82"/>
  <rect x="308" y="362" width="214" height="9" rx="4.5" fill="#94A3B8" opacity="0.54"/>
  <rect x="680" y="338" width="72" height="28" rx="14" fill="#EEF2FF"/>
  <rect x="688" y="346" width="56" height="12" rx="6" fill="#6366F1" opacity="0.72"/>
  <rect x="758" y="338" width="72" height="28" rx="14" fill="#F8FAFC"/>
  <rect x="766" y="346" width="56" height="12" rx="6" fill="#94A3B8" opacity="0.48"/>

  <line x1="334" y1="420" x2="816" y2="420" stroke="#E2E8F0" stroke-width="1"/>
  <line x1="334" y1="470" x2="816" y2="470" stroke="#E2E8F0" stroke-width="1"/>
  <line x1="334" y1="520" x2="816" y2="520" stroke="#E2E8F0" stroke-width="1"/>
  <line x1="334" y1="570" x2="816" y2="570" stroke="#E2E8F0" stroke-width="1"/>

  <path d="M334 566 C390 510 428 542 484 486 C540 430 596 454 652 392 C708 332 758 350 816 304" fill="none" stroke="#6366F1" stroke-width="4" stroke-linecap="round" stroke-linejoin="round"/>
  <path d="M334 566 C390 510 428 542 484 486 C540 430 596 454 652 392 C708 332 758 350 816 304 L816 596 L334 596 Z" fill="#6366F1" opacity="0.12"/>
  <circle cx="484" cy="486" r="6" fill="#6366F1"/>
  <circle cx="652" cy="392" r="6" fill="#6366F1"/>
  <circle cx="816" cy="304" r="6" fill="#6366F1"/>
  <rect x="612" y="370" width="106" height="40" rx="12" fill="#0F172A"/>
  <rect x="626" y="382" width="60" height="8" rx="4" fill="#fff" opacity="0.84"/>
  <rect x="626" y="394" width="42" height="8" rx="4" fill="#6366F1" opacity="0.90"/>

  <rect x="900" y="340" width="118" height="12" rx="6" fill="#0F172A" opacity="0.80"/>
  <rect x="900" y="360" width="150" height="8" rx="4" fill="#94A3B8" opacity="0.54"/>
  <circle cx="920" cy="404" r="18" fill="#EEF2FF"/>
  <circle cx="920" cy="438" r="18" fill="#EDE9FE"/>
  <circle cx="920" cy="472" r="18" fill="#DBEAFE"/>
  <rect x="950" y="396" width="104" height="10" rx="5" fill="#0F172A" opacity="0.76"/>
  <rect x="950" y="410" width="76" height="8" rx="4" fill="#94A3B8" opacity="0.55"/>
  <rect x="950" y="430" width="120" height="10" rx="5" fill="#0F172A" opacity="0.76"/>
  <rect x="950" y="444" width="88" height="8" rx="4" fill="#94A3B8" opacity="0.55"/>
  <rect x="950" y="464" width="90" height="10" rx="5" fill="#0F172A" opacity="0.76"/>
  <rect x="950" y="478" width="70" height="8" rx="4" fill="#94A3B8" opacity="0.55"/>

  <rect x="900" y="504" width="128" height="12" rx="6" fill="#0F172A" opacity="0.80"/>
  <rect x="900" y="524" width="164" height="8" rx="4" fill="#94A3B8" opacity="0.54"/>
  <rect x="902" y="554" width="26" height="52" rx="8" fill="#C7D2FE"/>
  <rect x="938" y="534" width="26" height="72" rx="8" fill="#A5B4FC"/>
  <rect x="974" y="574" width="26" height="32" rx="8" fill="#818CF8"/>
  <rect x="1010" y="516" width="26" height="90" rx="8" fill="#6366F1"/>
  <rect x="1046" y="548" width="26" height="58" rx="8" fill="#8B5CF6"/>
  <rect x="1082" y="566" width="26" height="40" rx="8" fill="#C4B5FD"/>
</svg>
